C:\GBW_MyPrograms\PredSimResults\Vitruvian_man\IG_v30ms_QR.mot
version=1
nRows=6
nColumns=35
inDegrees=yes
endheader
                time	         pelvis_tilt	           pelvis_tx	           pelvis_ty	       hip_flexion_r	        knee_angle_r	       ankle_angle_r	         mtp_angle_r	       hip_flexion_l	        knee_angle_l	       ankle_angle_l	         mtp_angle_l	    lumbar_extension	          arm_flex_r	          arm_flex_l	        elbow_flex_r	        elbow_flex_l	hamstrings_r/activation	bifemsh_r/activation	glut_max_r/activation	iliopsoas_r/activation	rect_fem_r/activation	  vasti_r/activation	gastroc_r/activation	 soleus_r/activation	tib_ant_r/activation	hamstrings_l/activation	bifemsh_l/activation	glut_max_l/activation	iliopsoas_l/activation	rect_fem_l/activation	  vasti_l/activation	gastroc_l/activation	 soleus_l/activation	tib_ant_l/activation	
          0.79298290	         -8.77415284	          2.36318139	          0.98814441	         10.23835238	        -50.91937680	        -18.66034306	         10.90287913	         32.61757813	        -23.58597796	         -1.42434471	          0.36170294	        -15.93355021	        -38.26642175	        -38.26865181	         98.10655165	         98.10702437	          0.05000717	          0.51610794	          0.05000178	          0.66759194	          0.97074083	          0.05000123	          0.13604301	          0.07584373	          0.33082449	          0.78926100	          0.11768645	          0.51028355	          0.05443578	          0.05174296	          0.08013304	          0.05441094	          0.08406482	          0.53413172	
          0.79826945	         -8.85906217	          2.37910391	          0.98552158	         11.24186600	        -52.44710827	        -17.90392486	         10.18433247	         32.42942072	        -24.16995819	         -1.11118618	          0.08843206	        -15.77703194	        -37.48918003	        -37.49134047	         96.81659730	         96.81708137	          0.05002427	          0.52531319	          0.05000159	          0.61353448	          0.97836452	          0.05000095	          0.12502916	          0.06970257	          0.33490412	          0.72535107	          0.10816025	          0.60297646	          0.05003186	          0.05000168	          0.19711316	          0.05000532	          0.07725785	          0.49088159	
          0.80355600	         -8.97281325	          2.39518889	          0.98253859	         12.30490432	        -53.94337678	        -17.14009778	          9.51219809	         32.26411195	        -25.17701031	         -0.32737825	         -0.42866339	        -15.54356099	        -36.81616475	        -36.81825061	         95.67703473	         95.67753042	          0.05000560	          0.55208115	          0.05000163	          0.56385423	          0.98400042	          0.05000099	          0.11490712	          0.06405876	          0.33141177	          0.66661616	          0.09940331	          0.68039693	          0.05000596	          0.05438761	          0.35904984	          0.18652845	          0.25476808	          0.45113295	
          0.80884255	         -9.11364906	          2.41141759	          0.97928923	         13.42229399	        -55.39501862	        -16.38245200	          8.88187889	         32.06005530	        -26.41867524	          0.87680456	         -0.62100573	        -15.24194795	        -36.24786198	        -36.24987326	         94.68821348	         94.68872075	          0.05016212	          0.57845620	          0.05000163	          0.51819678	          0.98815514	          0.05000099	          0.10560466	          0.05887205	          0.33509627	          0.61263726	          0.09135576	          0.74687776	          0.05000499	          0.05000538	          0.51509236	          0.17144352	          0.23981384	          0.41460299	
          0.81412911	         -9.28205282	          2.42775181	          0.97589463	         14.59340550	        -56.78917074	        -15.63114397	          8.28834059	         31.74591027	        -27.50427984	          2.37952893	         -0.52280736	        -14.88173416	        -35.78245108	        -35.78438705	         93.84950066	         93.85001958	          0.06598698	          0.60400507	          0.05000188	          0.47623644	          0.95889427	          0.05000106	          0.09705549	          0.05410574	          0.33327446	          0.56302928	          0.08396001	          0.77962661	          0.05000329	          0.05000396	          0.64145522	          0.17496214	          0.30182583	          0.38103106	
          0.81941566	         -9.48060465	          2.44411265	          0.97248261	         15.82597578	        -58.12139611	        -14.87277694	          7.72856118	         31.34064899	        -28.38351772	          3.84753991	         -0.20692234	        -14.47499067	        -35.41382285	        -35.41567969	         93.16138772	         93.16191832	          0.06764176	          0.64639495	          0.05000198	          0.43767389	          0.92121319	          0.05000109	          0.08919862	          0.05000257	          0.33544028	          0.51743829	          0.07716310	          0.78294269	          0.05000268	          0.05000361	          0.73488919	          0.21788899	          0.36862531	          0.35017763	
